SPORT: Ulster Rugby Live
On: BBC 2 Northern Ireland 
Date: Friday 15th February 2013 
Time: 19:00 to 21:00 

Ulster needed a last minute penalty try to secure victory when these sides last met at Stadio XXV Aprille in November. Ulster sitting top of the Pro12 table will be keen to maintain that position as Italian side Zebre make the trip to Ravenhill. Stephen Watson presents live coverage of the game with commentary from Jim Neilly.



General
Complete name: 2013.02.15.Ulster.v.Zebre.pdtv.x264.mkv
Format: Matroska
Format version: Version 4 / Version 2
File size: 1.57 GiB
Duration: 1h 59mn
Overall bit rate: 1 874 Kbps
Encoded date: UTC 2013-02-16 06:58:28
Writing application: mkvmerge v6.0.0 ('Coming Up For Air') built on Jan 20 2013 09:52:00
Writing library: libebml v1.3.0 + libmatroska v1.4.0

Video
ID: 1
Format: AVC
Format/Info: Advanced Video Codec
Format profile: High@L3.1
Format settings, CABAC: Yes
Format settings, ReFrames: 8 frames
Codec ID: V_MPEG4/ISO/AVC
Duration: 1h 59mn
Bit rate: 1 709 Kbps
Width: 704 pixels
Height: 560 pixels
Display aspect ratio: 16:9
Original display aspect ratio: 16:9
Frame rate mode: Constant
Frame rate: 25.000 fps
Color space: YUV
Chroma subsampling: 4:2:0
Bit depth: 8 bits
Scan type: Progressive
Bits/(Pixel*Frame): 0.173
Stream size: 1.43 GiB (91%)
Writing library: x264 core 129 r2245 bc13772

Audio
ID: 2
Format: AC-3
Format/Info: Audio Coding 3
Mode extension: CM (complete main)
Format settings, Endianness: Big
Codec ID: A_AC3
Duration: 1h 59mn
Bit rate mode: Constant
Bit rate: 128 Kbps
Channel(s): 2 channels
Channel positions: Front: L R
Sampling rate: 48.0 KHz
Bit depth: 16 bits
Compression mode: Lossy
Stream size: 110 MiB (7%)
Language: English